<?xml version="1.0" encoding="UTF-8" standalone="no"?>
<!-- Created with Inkscape (http://www.inkscape.org/) -->

<svg
   width="500"
   height="500"
   viewBox="0 0 500 500"
   version="1.1"
   id="svg5"
   xml:space="preserve"
   inkscape:version="1.2.2 (732a01da63, 2022-12-09)"
   sodipodi:docname="logo-bg.svg"
   inkscape:export-filename="logo-bg.png"
   inkscape:export-xdpi="96"
   inkscape:export-ydpi="96"
   xmlns:inkscape="http://www.inkscape.org/namespaces/inkscape"
   xmlns:sodipodi="http://sodipodi.sourceforge.net/DTD/sodipodi-0.dtd"
   xmlns:xlink="http://www.w3.org/1999/xlink"
   xmlns="http://www.w3.org/2000/svg"
   xmlns:svg="http://www.w3.org/2000/svg"><sodipodi:namedview
     id="namedview7"
     pagecolor="#ffffff"
     bordercolor="#111111"
     borderopacity="1"
     inkscape:showpageshadow="0"
     inkscape:pageopacity="0"
     inkscape:pagecheckerboard="1"
     inkscape:deskcolor="#d1d1d1"
     inkscape:document-units="px"
     showgrid="false"
     inkscape:current-layer="layer1"
     showguides="true" /><defs
     id="defs2"><linearGradient
       inkscape:collect="always"
       id="linearGradient898"><stop
         style="stop-color:#29a7e5;stop-opacity:1;"
         offset="0"
         id="stop894" /><stop
         style="stop-color:#116188;stop-opacity:1;"
         offset="0.74613684"
         id="stop896" /></linearGradient><linearGradient
       inkscape:collect="always"
       xlink:href="#linearGradient898"
       id="linearGradient900"
       x1="0"
       y1="0"
       x2="500"
       y2="500"
       gradientUnits="userSpaceOnUse" /><filter
       inkscape:collect="always"
       style="color-interpolation-filters:sRGB"
       id="filter3435"
       x="-0.3"
       y="-0.3"
       width="1.6"
       height="1.6"><feGaussianBlur
         inkscape:collect="always"
         stdDeviation="75"
         id="feGaussianBlur3437" /></filter><filter
       inkscape:collect="always"
       style="color-interpolation-filters:sRGB"
       id="filter4183"
       x="-0.3"
       y="-0.3"
       width="1.6"
       height="1.6"><feGaussianBlur
         inkscape:collect="always"
         stdDeviation="75"
         id="feGaussianBlur4181" /></filter><filter
       inkscape:collect="always"
       style="color-interpolation-filters:sRGB"
       id="filter4955"
       x="-0.16875"
       y="-0.16875"
       width="1.3375"
       height="1.3375"><feGaussianBlur
         inkscape:collect="always"
         stdDeviation="42.1875"
         id="feGaussianBlur4953" /></filter></defs><g
     inkscape:label="283375"
     inkscape:groupmode="layer"
     id="layer1"><rect
       style="fill:url(#linearGradient900);fill-opacity:1;stroke:none;stroke-width:20;stroke-linecap:round;stroke-linejoin:round;stroke-miterlimit:38"
       id="rect263"
       width="500"
       height="500"
       x="0"
       y="0"
       inkscape:label="bg"
       sodipodi:insensitive="true" /><circle
       style="mix-blend-mode:color-burn;fill:#bfbfbf;fill-opacity:1;stroke:none;stroke-width:20;stroke-linecap:round;stroke-linejoin:round;stroke-miterlimit:38;filter:url(#filter4955)"
       id="circle4945"
       cx="30.00001"
       cy="148.98573"
       r="300"
       sodipodi:insensitive="true"
       inkscape:label="bg_color_adjust_tl" /><circle
       style="mix-blend-mode:color-dodge;fill:#404040;fill-opacity:1;stroke:none;stroke-width:20;stroke-linecap:round;stroke-linejoin:round;stroke-miterlimit:38;filter:url(#filter3435)"
       id="path3429"
       cx="421.45685"
       cy="76.456848"
       r="300"
       sodipodi:insensitive="true"
       inkscape:label="bg_color_adjust_tr" /><circle
       style="mix-blend-mode:color-burn;fill:#bfbfbf;fill-opacity:1;stroke:none;stroke-width:20;stroke-linecap:round;stroke-linejoin:round;stroke-miterlimit:38;filter:url(#filter4183)"
       id="circle4178"
       cx="551.45685"
       cy="471.45685"
       r="300"
       sodipodi:insensitive="true"
       inkscape:label="bg_color_adjust_br" /><g
       id="g6202"
       inkscape:label="circles"
       style="display:none"><circle
         style="display:inline;fill:none;fill-opacity:1;stroke:#d2eff9;stroke-width:20;stroke-linecap:round;stroke-linejoin:round;stroke-miterlimit:38;stroke-dasharray:none;stroke-opacity:1"
         id="path5044"
         cx="250"
         cy="250"
         r="210"
         inkscape:label="o" /><circle
         style="display:inline;fill:none;fill-opacity:1;stroke:#d2eff9;stroke-width:20;stroke-linecap:round;stroke-linejoin:round;stroke-miterlimit:38;stroke-dasharray:none;stroke-opacity:1"
         id="path6190"
         cx="250"
         cy="250"
         r="160"
         inkscape:label="m" /><circle
         style="display:inline;fill:none;fill-opacity:1;stroke:#d2eff9;stroke-width:20;stroke-linecap:round;stroke-linejoin:round;stroke-miterlimit:38;stroke-dasharray:none;stroke-opacity:1"
         id="path6192"
         cx="250"
         cy="250"
         r="110"
         inkscape:label="i" /></g><g
       id="g2271"
       inkscape:label="g3375"
       style="display:inline"><path
         style="color:#000000;fill:#d2eff9;stroke-linecap:round;stroke-linejoin:round;stroke-miterlimit:38;-inkscape-stroke:none"
         d="M 450,250 C 450,360.57529 360.57529,450 250,450 139.42471,450 50,360.57529 50,250 50,139.42471 139.42471,50 250,50 V 30 C 128.61592,30 30,128.61592 30,250 c 0,121.38408 98.61592,220 220,220 121.38408,0 220,-98.61592 220,-220 z"
         id="circle2265"
         sodipodi:nodetypes="cssccsscc" /><path
         style="color:#000000;fill:#d2eff9;stroke-linecap:round;stroke-linejoin:round;stroke-miterlimit:38;-inkscape-stroke:none"
         d="m 250,80 c -93.76987,0 -170,76.23013 -170,170 0,93.76987 76.23013,170 170,170 93.76987,0 170,-76.23013 170,-170 C 420,156.23013 343.76987,80 250,80 Z m 0,20 c 82.96108,0 150,67.03892 150,150 0,82.96108 -67.03892,150 -150,150 -82.96108,0 -150,-67.03892 -150,-150 0,-82.96108 67.03892,-150 150,-150 z"
         id="circle2267" /><path
         style="color:#000000;fill:#d2eff9;stroke-linecap:round;stroke-linejoin:round;stroke-miterlimit:38;-inkscape-stroke:none"
         d="m 250,370 c 66.15566,0 120,-53.84434 120,-120 0,-66.15566 -53.84434,-120 -120,-120 -66.15566,0 -120,53.84434 -120,120 h 20 c 0,-55.34687 44.65313,-100 100,-100 55.34687,0 100,44.65313 100,100 0,55.34687 -44.65313,100 -100,100 z"
         id="circle2269"
         sodipodi:nodetypes="cssccsscc" /></g></g><style
     type="text/css"
     id="style315">
	.st0{fill:#FFFFFF;}
</style></svg>
